<svg height="480pt" viewBox="0 -88 480 480" width="480pt" xmlns="http://www.w3.org/2000/svg"><path d="m472 0h-464c-4.417969 0-8 3.582031-8 8v288c0 4.417969 3.582031 8 8 8h32c2.121094 0 4.15625-.84375 5.65625-2.34375l37.65625-37.65625h313.375l37.65625 37.65625c1.5 1.5 3.535156 2.34375 5.65625 2.34375h32c4.417969 0 8-3.582031 8-8v-288c0-4.417969-3.582031-8-8-8zm-140.433594 248h-36.796875l-6.882812-6.871094 25.265625-25.265625 25.246094 25.289063zm-189.964844-6.847656 25.285157-25.289063 25.265625 25.265625-6.878906 6.871094h-36.800782zm250.398438-126.753906-5.71875 5.722656-25.242188-25.273438 6.839844-6.847656h24.121094zm-225.128906 28.363281 25.25 25.238281-25.25 25.238281-25.269532-25.238281zm-36.550782 13.925781-25.289062-25.289062 25.242188-25.238282 25.285156 25.289063zm47.863282-25.238281 25.265625-25.265625 25.238281 25.25-25.253906 25.253906zm25.25 47.863281 25.253906 25.253906-25.238281 25.25-25.265625-25.265625zm11.308594-11.3125 25.257812-25.257812 25.257812 25.257812-25.257812 25.257812zm36.570312-36.566406 25.238281-25.25 25.265625 25.265625-25.25 25.238281zm25.253906 47.878906 25.25 25.238281-25.265625 25.265625-25.238281-25.25zm11.3125-11.3125 25.25-25.238281 25.269532 25.238281-25.238282 25.238281zm36.5625-36.550781 25.285156-25.289063 25.242188 25.238282-25.289062 25.289062zm7.125-43.449219 6.847656 6.847656-25.285156 25.289063-25.265625-25.265625 6.878907-6.871094zm-73.167968 0 6.875 6.871094-25.273438 25.25-25.238281-25.25 6.839843-6.871094zm-73.109376 0 6.878907 6.871094-25.265625 25.265625-25.300782-25.289063 6.832032-6.847656zm-73.136718 0 6.839844 6.847656-25.238282 25.242188-5.753906-5.691406v-26.398438zm-24.152344 99.566406v-39.132812l5.71875-5.722656 25.289062 25.289062-25.289062 25.289062zm42.320312-8.253906 25.238282 25.238281-25.285156 25.289063-25.242188-25.238282zm84.441407 61.816406 25.238281-25.25 25.238281 25.25-6.839843 6.871094h-36.796876zm109.679687-36.578125 25.238282-25.238281 25.289062 25.289062-25.242188 25.238282zm36.550782-36.550781 25.289062-25.289062 5.71875 5.722656v39.132812l-5.71875 5.722656zm47.007812-84.6875 24-24v217.375l-24-24zm-11.3125-11.3125h-313.375l-24-24h361.375zm-348.6875-12.6875 24 24v169.375l-24 24zm40 162.289062 5.71875-5.722656 25.242188 25.242188-6.839844 6.878906h-24.121094zm279.878906 26.398438-6.839844-6.847656 25.242188-25.242188 5.71875 5.691406v26.398438zm96.121094 40h-16v-248c0-4.417969-3.582031-8-8-8h-400c-4.417969 0-8 3.582031-8 8v248h-16v-272h448zm0 0"/></svg>