<svg height="480pt" viewBox="-24 0 480 480.17055" width="480pt" xmlns="http://www.w3.org/2000/svg"><path d="m394.425781 165.65625c3.125 3.121094 8.191407 3.121094 11.3125 0l24-24c3.125-3.125 3.125-8.1875 0-11.3125l-56-56c-3.121093-3.121094-8.1875-3.121094-11.3125 0l-24 24c-3.121093 3.125-3.121093 8.1875 0 11.3125l10.347657 10.34375-15.816407 15.816406c-26.992187-20.808594-59.058593-34.019531-92.875-38.265625v-33.550781h40c4.417969 0 8-3.582031 8-8v-48c0-4.417969-3.582031-8-8-8h-128c-4.417969 0-8 3.582031-8 8v48c0 4.417969 3.582031 8 8 8h40v33.550781c-33.8125 4.246094-65.878906 17.457031-92.871093 38.265625l-15.816407-15.816406 10.34375-10.34375c3.125-3.125 3.125-8.1875 0-11.3125l-24-24c-3.121093-3.121094-8.1875-3.121094-11.3125 0l-56 56c-3.121093 3.125-3.121093 8.1875 0 11.3125l24 24c3.125 3.121094 8.191407 3.121094 11.3125 0l9.730469-9.726562 16.359375 15.269531c-60.667969 78.96875-50.890625 191.214843 22.515625 258.503906s186.074219 67.289063 259.480469 0 83.183593-179.535156 22.515625-258.503906l16.359375-15.304688zm-26.34375-74.34375 44.691407 44.6875-12.691407 12.6875-7.933593-7.933594c-.347657-.726562-.800782-1.394531-1.34375-1.984375l-25.121094-24.496093-10.289063-10.273438zm-208-75.3125h112v32h-112zm48 80v-32h16v32zm-176 52.6875-12.6875-12.6875 44.6875-44.6875 12.691407 12.6875-10.289063 10.265625-25.121094 24.503906c-.542969.589844-.996093 1.257813-1.34375 1.984375zm40-17.375 12.691407 12.6875-12.875 12.871094-13.109376-12.261719zm144 332.6875c-97.199219 0-176-78.796875-176-176s78.800781-176 176-176c97.203125 0 176 78.796875 176 176-.109375 97.15625-78.84375 175.890625-176 176zm144.183594-307.128906-12.871094-12.871094 12.6875-12.6875 13.296875 13.296875zm0 0"/><path d="m329.21875 174.863281c-.121094-.121093-.277344-.152343-.398438-.261719-62.316406-62.136718-163.15625-62.136718-225.472656 0-.121094.109376-.28125.140626-.398437.261719-.121094.121094-.152344.273438-.257813.394531-62.144531 62.316407-62.144531 163.167969 0 225.484376.105469.121093.144532.28125.257813.394531.109375.109375.277343.152343.398437.261719 62.316406 62.136718 163.15625 62.136718 225.472656 0 .121094-.109376.277344-.140626.398438-.261719.121094-.121094.152344-.273438.257812-.394531 62.144532-62.316407 62.144532-163.167969 0-225.484376-.105468-.121093-.144531-.28125-.257812-.394531zm6.863281 121.136719h23.59375c-1.769531 32.574219-14.609375 63.566406-36.390625 87.847656l-16.699218-16.648437c-3.15625-2.902344-8.039063-2.804688-11.074219.230469-3.03125 3.03125-3.132813 7.917968-.226563 11.074218l16.644532 16.695313c-24.28125 21.785156-55.273438 34.621093-87.847657 36.394531v-23.59375c0-4.417969-3.582031-8-8-8s-8 3.582031-8 8v23.59375c-32.570312-1.773438-63.5625-14.609375-87.847656-36.394531l16.648437-16.695313c2.90625-3.15625 2.804688-8.042968-.230468-11.074218-3.03125-3.035157-7.917969-3.132813-11.074219-.230469l-16.65625 16.65625c-21.796875-24.277344-34.648437-55.273438-36.429687-87.855469h23.589843c4.417969 0 8-3.582031 8-8s-3.582031-8-8-8h-23.589843c1.78125-32.578125 14.632812-63.570312 36.429687-87.847656l16.65625 16.648437c3.15625 2.902344 8.042969 2.804688 11.074219-.230469 3.035156-3.03125 3.136718-7.917968.230468-11.074218l-16.65625-16.65625c24.28125-21.796875 55.277344-34.652344 87.855469-36.433594v23.59375c0 4.417969 3.582031 8 8 8s8-3.582031 8-8v-23.59375c32.578125 1.785156 63.570313 14.636719 87.847657 36.433594l-16.644532 16.65625c-2.164062 1.988281-3.058594 5.003906-2.339844 7.851562.722657 2.84375 2.945313 5.070313 5.792969 5.789063 2.847657.722656 5.859375-.175781 7.847657-2.335938l16.699218-16.648437c21.78125 24.28125 34.621094 55.273437 36.390625 87.847656h-23.59375c-4.417969 0-8 3.582031-8 8s3.582031 8 8 8zm0 0"/><path d="m274.425781 218.34375-48 48-.046875.070312c-3.203125-1.570312-6.726562-2.394531-10.296875-2.414062-13.253906 0-24 10.746094-24 24s10.746094 24 24 24c13.257813 0 24-10.746094 24-24-.011719-3.570312-.832031-7.089844-2.398437-10.296875l.070312-.046875 48-48c3.035156-3.140625 2.988282-8.128906-.097656-11.214844-3.085938-3.085937-8.074219-3.128906-11.210938-.097656zm-58.34375 77.65625c-4.417969 0-8-3.582031-8-8s3.582031-8 8-8 8 3.582031 8 8-3.582031 8-8 8zm0 0"/></svg>