<svg height="479pt" viewBox="0 -95 479.99905 479" width="479pt" xmlns="http://www.w3.org/2000/svg"><path d="m472 .5h-208c-4.417969 0-8 3.582031-8 8v24h-40v-24c0-4.417969-3.582031-8-8-8h-64c-24.679688-.003906-48.945312 6.359375-70.449219 18.472656-8.78125-13.792968-25.089843-20.832031-41.148437-17.761718-16.0625 3.070312-28.621094 15.632812-31.691406 31.691406-3.070313 16.058594 3.96875 32.367187 17.761718 41.148437-28.769531 51.199219-23.5625 114.734375 13.152344 160.566407 36.714844 45.835937 97.582031 64.78125 153.824219 47.882812 56.242187-16.898438 96.585937-66.257812 101.957031-124.738281l186.488281-45.484375c3.585938-.875 6.105469-4.089844 6.105469-7.777344v-96c0-4.417969-3.582031-8-8-8zm-432 16c8.207031-.007812 15.839844 4.230469 20.175781 11.199219-12.734375 9.101562-23.875 20.242187-32.976562 32.976562-6.96875-4.339843-11.203125-11.96875-11.199219-20.175781 0-13.253906 10.746094-24 24-24zm424 81.71875-186.058594 45.386719c-3.4375.835937-5.917968 3.835937-6.09375 7.375-3.535156 69.757812-62.34375 123.800781-132.152344 121.445312-69.808593-2.355469-124.839843-60.242187-123.667968-130.078125 1.175781-69.839844 58.125-125.839844 127.972656-125.847656h56v24c0 4.417969 3.582031 8 8 8h56c4.417969 0 8-3.582031 8-8v-24h192zm0 0"/><path d="m144 56.5c-48.601562 0-88 39.398438-88 88s39.398438 88 88 88 88-39.398438 88-88c-.058594-48.578125-39.421875-87.941406-88-88zm0 160c-39.765625 0-72-32.234375-72-72s32.234375-72 72-72c39.761719 0 72 32.234375 72 72-.050781 39.742188-32.257812 71.949219-72 72zm0 0"/></svg>